<?xml version="1.0" standalone="no"?>
<!DOCTYPE svg PUBLIC "-//W3C//DTD SVG 20010904//EN"
 "http://www.w3.org/TR/2001/REC-SVG-20010904/DTD/svg10.dtd">
<svg version="1.0" xmlns="http://www.w3.org/2000/svg"
 width="2459.000000pt" height="2459.000000pt" viewBox="0 0 2459.000000 2459.000000"
 preserveAspectRatio="xMidYMid meet">
<metadata>
Created by potrace 1.11, written by Peter Selinger 2001-2013
</metadata>
<g transform="translate(0.000000,2459.000000) scale(0.100000,-0.100000)"
fill="#000000" stroke="none">
<path d="M11870 22959 c-681 -55 -1362 -244 -1961 -544 -216 -108 -345 -182
-554 -319 -329 -217 -540 -390 -841 -690 -300 -301 -473 -512 -690 -841 -147
-225 -217 -348 -340 -600 -299 -613 -471 -1251 -524 -1944 -13 -174 -13 -598
0 -772 79 -1028 435 -1985 1045 -2804 277 -373 680 -780 1053 -1063 768 -582
1642 -933 2624 -1054 163 -20 229 -22 603 -22 374 0 440 2 603 22 982 121
1856 472 2624 1054 372 283 777 691 1053 1063 610 819 966 1776 1045 2804 13
174 13 598 0 772 -53 693 -225 1331 -524 1944 -121 249 -192 374 -334 590
-218 332 -396 550 -696 851 -301 300 -512 473 -841 690 -209 137 -336 210
-554 319 -610 305 -1281 489 -1980 544 -156 13 -657 12 -811 0z"/>
<path d="M10294 10943 c8 -16 307 -541 666 -1168 559 -977 651 -1144 647
-1170 -5 -28 -1297 -5519 -1315 -5587 -7 -28 -171 618 -1001 3944 -546 2188
-996 3979 -999 3981 -4 2 -61 0 -127 -5 -759 -52 -1565 -281 -2225 -631 -508
-269 -942 -589 -1351 -997 -457 -456 -789 -917 -1069 -1485 -243 -493 -407
-1000 -495 -1530 -70 -425 -68 -379 -73 -1650 -2 -818 0 -1177 8 -1245 109
-911 810 -1625 1722 -1755 156 -22 15050 -22 15206 0 912 130 1612 843 1722
1755 8 68 10 420 8 1245 -5 1271 -3 1225 -73 1650 -146 881 -516 1733 -1064
2450 -298 389 -701 789 -1092 1082 -793 594 -1741 972 -2729 1087 -150 18
-371 35 -382 29 -3 -2 -453 -1793 -999 -3981 -830 -3326 -994 -3972 -1001
-3944 -18 68 -1310 5559 -1315 5587 -4 26 88 193 647 1170 359 627 658 1152
666 1168 l15 27 -2006 0 -2006 0 15 -27z"/>
</g>
</svg>
